<svg width="18.666656" height="18.666672" viewBox="0 0 18.6667 18.6667" fill="none" xmlns="http://www.w3.org/2000/svg" xmlns:xlink="http://www.w3.org/1999/xlink">
	<desc>
			Created with Pixso.
	</desc>
	<defs/>
	<path id="Vector" d="M15.3 5.43L13.22 3.36L15.3 5.43ZM8.95 7.14C8.65 7.43 8.46 7.8 8.38 8.2L7.86 10.8L10.45 10.28C10.86 10.2 11.22 10 11.51 9.71L17.13 4.1C17.3 3.93 17.43 3.73 17.52 3.51C17.61 3.29 17.66 3.05 17.66 2.81C17.66 2.57 17.61 2.34 17.52 2.12C17.43 1.9 17.3 1.7 17.13 1.53C16.96 1.36 16.76 1.22 16.54 1.13C16.32 1.04 16.08 1 15.84 1C15.61 1 15.37 1.04 15.15 1.13C14.93 1.22 14.73 1.36 14.56 1.53L8.95 7.14Z" stroke="#6E6893" stroke-opacity="1.000000" stroke-width="2.000000" stroke-linejoin="round"/>
	<path id="Vector" d="M15.7 12.76L15.7 15.7C15.7 16.22 15.49 16.72 15.13 17.09C14.76 17.46 14.26 17.66 13.74 17.66L2.96 17.66C2.44 17.66 1.94 17.46 1.57 17.09C1.2 16.72 1 16.22 1 15.7L1 4.92C1 4.4 1.2 3.9 1.57 3.53C1.94 3.16 2.44 2.96 2.96 2.96L5.9 2.96" stroke="#6E6893" stroke-opacity="1.000000" stroke-width="2.000000" stroke-linejoin="round" stroke-linecap="round"/>
</svg>
