<svg width="20.000000" height="20.000000" viewBox="0 0 20 20" fill="none" xmlns="http://www.w3.org/2000/svg" xmlns:xlink="http://www.w3.org/1999/xlink">
	<desc>
			Created with Pixso.
	</desc>
	<defs>
		<clipPath id="clip84_15">
			<rect width="20.000000" height="20.000000" fill="white" fill-opacity="0"/>
		</clipPath>
	</defs>
	<rect width="20.000000" height="20.000000" fill="#FFFFFF" fill-opacity="0"/>
	<g clip-path="url(#clip84_15)">
		<path d="M17.77 2.22L2.22 2.22C1.92 2.22 1.64 2.33 1.43 2.54C1.22 2.75 1.11 3.03 1.11 3.33L1.11 16.66C1.11 16.96 1.22 17.24 1.43 17.45C1.64 17.66 1.92 17.77 2.22 17.77L17.77 17.77C18.07 17.77 18.35 17.66 18.56 17.45C18.77 17.24 18.88 16.96 18.88 16.66L18.88 3.33C18.88 3.03 18.77 2.75 18.56 2.54C18.35 2.33 18.07 2.22 17.77 2.22ZM2.22 16.66L2.22 3.33L17.77 3.33L17.77 16.66L2.22 16.66Z" fill="#6E6893" fill-opacity="1.000000" fill-rule="nonzero"/>
		<path d="M4.95 7.77C5.28 7.77 5.6 7.68 5.88 7.49C6.15 7.31 6.36 7.05 6.49 6.74C6.62 6.44 6.65 6.1 6.59 5.78C6.52 5.46 6.36 5.16 6.13 4.93C5.9 4.69 5.6 4.54 5.28 4.47C4.95 4.41 4.62 4.44 4.31 4.57C4.01 4.69 3.75 4.91 3.56 5.18C3.38 5.45 3.28 5.78 3.28 6.11C3.28 6.55 3.46 6.97 3.77 7.28C4.08 7.6 4.51 7.77 4.95 7.77ZM4.95 5.22C5.13 5.22 5.3 5.27 5.45 5.36C5.59 5.46 5.71 5.6 5.78 5.76C5.84 5.92 5.86 6.1 5.83 6.28C5.79 6.45 5.71 6.61 5.59 6.73C5.46 6.86 5.3 6.94 5.13 6.98C4.96 7.01 4.78 6.99 4.62 6.93C4.45 6.86 4.32 6.75 4.22 6.6C4.12 6.45 4.07 6.28 4.07 6.11C4.07 5.87 4.16 5.65 4.33 5.48C4.49 5.32 4.72 5.22 4.95 5.22L4.95 5.22Z" fill="#6E6893" fill-opacity="1.000000" fill-rule="nonzero"/>
		<path d="M12.65 8.53L9.65 11.53L7.43 9.31C7.32 9.21 7.18 9.15 7.04 9.15C6.89 9.15 6.75 9.21 6.64 9.31L3.28 12.72L3.28 14.29L7.06 10.52L8.88 12.32L6.8 14.4L8.33 14.4L13.02 9.71L16.66 13.33L16.66 11.76L13.43 8.53C13.33 8.43 13.19 8.37 13.04 8.37C12.9 8.37 12.75 8.43 12.65 8.53Z" fill="#6E6893" fill-opacity="1.000000" fill-rule="nonzero"/>
	</g>
</svg>
