<svg width="20.000000" height="20.000000" viewBox="0 0 20 20" fill="none" xmlns="http://www.w3.org/2000/svg" xmlns:xlink="http://www.w3.org/1999/xlink">
	<desc>
			Created with Pixso.
	</desc>
	<defs/>
	<rect id="Shape/Search" width="20.000000" height="20.000000" fill="#8B83BA" fill-opacity="0"/>
	<path id="Shape/Search" d="M13.4 14.88C11.73 16.17 9.63 16.79 7.53 16.59C5.42 16.39 3.47 15.4 2.07 13.81C0.67 12.23 -0.07 10.17 0 8.05C0.07 5.94 0.93 3.93 2.43 2.43C3.92 0.93 5.93 0.07 8.05 0C10.16 -0.07 12.22 0.68 13.8 2.07C15.39 3.47 16.38 5.43 16.58 7.53C16.78 9.64 16.17 11.74 14.87 13.41L19.69 18.22C20.1 18.62 20.1 19.28 19.69 19.69C19.28 20.1 18.62 20.1 18.22 19.69L13.42 14.88L13.4 14.88ZM8.31 14.54C9.13 14.54 9.94 14.38 10.7 14.07C11.46 13.76 12.14 13.3 12.72 12.72C13.3 12.14 13.76 11.45 14.07 10.69C14.39 9.94 14.55 9.13 14.55 8.31C14.55 7.49 14.39 6.68 14.07 5.92C13.76 5.16 13.3 4.48 12.72 3.9C12.14 3.32 11.46 2.86 10.7 2.55C9.94 2.23 9.13 2.07 8.31 2.07C6.66 2.07 5.08 2.73 3.91 3.9C2.74 5.07 2.08 6.65 2.08 8.31C2.08 9.96 2.74 11.55 3.91 12.72C5.08 13.89 6.66 14.54 8.31 14.54Z" fill="#8B83BA" fill-opacity="1.000000" fill-rule="evenodd"/>
</svg>
