<svg width="23.333374" height="30.000000" viewBox="0 0 23.3334 30" fill="none" xmlns="http://www.w3.org/2000/svg" xmlns:xlink="http://www.w3.org/1999/xlink">
	<desc>
			Created with Pixso.
	</desc>
	<defs/>
	<path id="Vector" d="M15.2 12.45L11.66 15.98L8.11 12.45L5.76 14.8L9.31 18.33L5.78 21.86L8.13 24.21L11.66 20.68L15.2 24.21L17.54 21.86L14.01 18.33L17.54 14.8L15.2 12.45ZM17.5 1.66L15.83 0L7.5 0L5.83 1.66L0 1.66L0 5L23.33 5L23.33 1.66L17.5 1.66ZM1.66 26.66C1.66 28.5 3.16 30 5 30L18.33 30C20.16 30 21.66 28.5 21.66 26.66L21.66 6.66L1.66 6.66L1.66 26.66ZM5 10L18.33 10L18.33 26.66L5 26.66L5 10Z" fill="#FFFFFF" fill-opacity="1.000000" fill-rule="nonzero"/>
</svg>
