<svg width="15.000000" height="15.625000" viewBox="0 0 15 15.625" fill="none" xmlns="http://www.w3.org/2000/svg" xmlns:xlink="http://www.w3.org/1999/xlink">
	<desc>
			Created with Pixso.
	</desc>
	<defs/>
	<path id="Vector" d="M4.53 1.4L4.37 1.4C4.46 1.4 4.53 1.33 4.53 1.25L4.53 1.4L10.46 1.4L10.46 1.25C10.46 1.33 10.53 1.4 10.62 1.4L10.46 1.4L10.46 2.81L11.87 2.81L11.87 1.25C11.87 0.56 11.31 0 10.62 0L4.37 0C3.68 0 3.12 0.56 3.12 1.25L3.12 2.81L4.53 2.81L4.53 1.4ZM14.37 2.81L0.62 2.81C0.27 2.81 0 3.09 0 3.43L0 4.06C0 4.14 0.07 4.21 0.15 4.21L1.33 4.21L1.81 14.43C1.84 15.09 2.4 15.62 3.06 15.62L11.93 15.62C12.6 15.62 13.15 15.1 13.18 14.43L13.66 4.21L14.84 4.21C14.92 4.21 15 4.14 15 4.06L15 3.43C15 3.09 14.72 2.81 14.37 2.81ZM11.78 14.21L3.21 14.21L2.74 4.21L12.25 4.21L11.78 14.21Z" fill="#6E6893" fill-opacity="1.000000" fill-rule="nonzero"/>
</svg>
